<svg xmlns="http://www.w3.org/2000/svg" version="1.1" xmlns:xlink="http://www.w3.org/1999/xlink" xmlns:svgjs="http://svgjs.dev/svgjs" width="1500" height="1500" viewBox="0 0 1500 1500"><rect width="1500" height="1500" fill="#faf5f8"></rect><g transform="matrix(0.6666666666666666,0,0,0.6666666666666666,249.39393939393938,607.2497833259732)"><svg viewBox="0 0 396 113" data-background-color="#faf5f8" preserveAspectRatio="xMidYMid meet" height="428" width="1500" xmlns="http://www.w3.org/2000/svg" xmlns:xlink="http://www.w3.org/1999/xlink"><g id="tight-bounds" transform="matrix(1,0,0,1,0.2400000000000091,0.03308814543819949)"><svg viewBox="0 0 395.52 112.93382370912359" height="112.93382370912359" width="395.52"><g><svg viewBox="0 0 395.52 112.93382370912359" height="112.93382370912359" width="395.52"><g><svg viewBox="0 0 580.1555511439116 165.65327856178183" height="112.93382370912359" width="395.52"><g transform="matrix(1,0,0,1,184.63555114391158,22.894194070405455)"><svg viewBox="0 0 395.52 119.86489042097092" height="119.86489042097092" width="395.52"><g id="textblocktransform"><svg viewBox="0 0 395.52 119.86489042097092" height="119.86489042097092" width="395.52" id="textblock"><g><svg viewBox="0 0 395.52 80.40746446961896" height="80.40746446961896" width="395.52"><g transform="matrix(1,0,0,1,0,0)"><svg width="395.52" viewBox="1.65 -34.8 242.73 49.349999999999994" height="80.40746446961896" data-palette-color="#9dbbeb"><path d="M19.9-34.8L19.9-34.8Q24.4-34.8 26.95-32.27 29.5-29.75 29.5-24.83 29.5-19.9 25.95-15.8 22.4-11.7 17-11.7L17-11.7Q13.9-11.7 13-12.5L13-12.5Q12.35-13.15 12.35-14.08 12.35-15 12.95-15.53 13.55-16.05 14.33-16.05 15.1-16.05 16.43-15.55 17.75-15.05 19.05-15.05L19.05-15.05Q21.85-15.05 23.93-17.32 26-19.6 26-22.98 26-26.35 23.78-28.85 21.55-31.35 18-31.35 14.45-31.35 11.4-29.45L11.4-29.45Q10.8-14.15 10.8 10.2L10.8 10.2Q10.8 14.55 8.05 14.55L8.05 14.55Q7 14.55 6.18 13.75 5.35 12.95 5.35 11.73 5.35 10.5 6.43 9 7.5 7.5 7.5 5.85L7.5 5.85Q7.5-10.3 7.35-15.3L7.35-15.3Q7.1-23.65 7.1-25.8L7.1-25.8Q5.7-24.15 4.85-22.4 4-20.65 3-20.65L3-20.65Q1.65-20.65 1.65-22.05 1.65-23.45 3.2-25.53 4.75-27.6 7.18-29.68 9.6-31.75 13.08-33.27 16.55-34.8 19.9-34.8ZM39.6-9.95L39.6-9.95 33.65-10.45Q32.8-10.45 32.3-10.3L32.3-10.3Q32.6-7.45 34.72-5.55 36.85-3.65 39.75-3.65L39.75-3.65Q42.55-3.65 44.8-5.7L44.8-5.7Q45.6-6.4 46-6.4 46.4-6.4 46.7-6.1 47-5.8 47-5.45L47-5.45Q47-4 44.17-1.85 41.35 0.3 37.77 0.3 34.2 0.3 31.57-2.6 28.95-5.5 28.95-9.8L28.95-9.8Q28.95-15.3 33.1-19.05 37.25-22.8 42.25-22.8L42.25-22.8Q44.35-22.8 45.67-22.08 47-21.35 47-20.23 47-19.1 46.32-18.4 45.65-17.7 45-17.7 44.35-17.7 42.77-18.3 41.2-18.9 39.75-18.9L39.75-18.9Q37.05-18.9 35.07-17.28 33.1-15.65 32.45-13.25L32.45-13.25 39.35-13.65Q41.65-13.65 41.65-11.85L41.65-11.85Q41.65-9.95 39.6-9.95ZM55.15-14.3L55.15-14.3 55.45-2.1Q55.45-1.05 54.85-0.38 54.25 0.3 53.3 0.3 52.35 0.3 51.67-0.38 51-1.05 51-2.1L51-2.1 51.35-12Q51.35-12 51-20.35L51-20.35Q51-21.4 51.67-22.1 52.35-22.8 53.3-22.8 54.25-22.8 54.85-22.13 55.45-21.45 55.45-20.45 55.45-19.45 55.4-18.95L55.4-18.95Q58.2-22.8 61.85-22.8L61.85-22.8Q67.09-22.8 68.59-15.75L68.59-15.75 70.5-7.15Q70.8-6 71.72-4.67 72.65-3.35 72.65-2.3L72.65-2.3Q72.65 0.3 70.15 0.3 67.65 0.3 66.9-3.65L66.9-3.65 65-14.1Q64.05-19.1 59.85-19.1L59.85-19.1Q57.7-19.1 56.5-17.65 55.3-16.2 55.15-14.3ZM81.54-14.3L81.54-14.3 81.84-2.1Q81.84-1.05 81.24-0.38 80.64 0.3 79.69 0.3 78.74 0.3 78.07-0.38 77.39-1.05 77.39-2.1L77.39-2.1 77.74-12Q77.74-12 77.39-20.35L77.39-20.35Q77.39-21.4 78.07-22.1 78.74-22.8 79.69-22.8 80.64-22.8 81.24-22.13 81.84-21.45 81.84-20.45 81.84-19.45 81.79-18.95L81.79-18.95Q84.59-22.8 88.24-22.8L88.24-22.8Q93.49-22.8 94.99-15.75L94.99-15.75 96.89-7.15Q97.19-6 98.12-4.67 99.04-3.35 99.04-2.3L99.04-2.3Q99.04 0.3 96.54 0.3 94.04 0.3 93.29-3.65L93.29-3.65 91.39-14.1Q90.44-19.1 86.24-19.1L86.24-19.1Q84.09-19.1 82.89-17.65 81.69-16.2 81.54-14.3ZM118.84-6.35L118.84-6.35 118.74 0.65Q118.74 5.55 114.44 10.03 110.14 14.5 104.84 14.5L104.84 14.5Q102.19 14.5 100.24 13 98.29 11.5 98.29 9.75L98.29 9.75Q98.29 8.85 98.92 8.15 99.54 7.45 100.42 7.45 101.29 7.45 102.02 7.95 102.74 8.45 103.37 9.05 103.99 9.65 105.27 10.15 106.54 10.65 108.14 10.65L108.14 10.65Q111.29 10.65 113.54 8.33 115.79 6 115.79 2.8L115.79 2.8Q115.79-1.6 115.74-3.45L115.74-3.45Q113.44 0.3 109.99 0.3L109.99 0.3Q107.14 0.3 105.47-1.75 103.79-3.8 103.14-6.75L103.14-6.75 101.24-15.35Q100.94-16.8 99.92-17.93 98.89-19.05 98.89-20.2 98.89-21.35 99.69-22.08 100.49-22.8 101.44-22.8 102.39-22.8 102.99-22.45 103.59-22.1 103.99-21.4L103.99-21.4Q104.54-20.35 104.84-18.85L104.84-18.85 107.04-8.4Q107.59-5.95 108.52-4.67 109.44-3.4 111.39-3.4 113.34-3.4 114.52-4.88 115.69-6.35 115.69-8.55L115.69-8.55 115.34-19.8Q115.34-21.15 116.02-21.98 116.69-22.8 117.64-22.8 118.59-22.8 119.19-22.03 119.79-21.25 119.79-19.93 119.79-18.6 119.49-16.2L119.49-16.2Q118.84-11 118.84-6.35ZM142.04-28.35L142.04-28.35Q139.19-31.8 136.19-31.8L136.19-31.8Q133.84-31.8 132.24-30.2 130.64-28.6 130.64-26.4 130.64-24.2 131.91-22.75 133.19-21.3 135.09-20.35 136.99-19.4 139.19-18.13 141.39-16.85 143.29-15.48 145.19-14.1 146.46-11.73 147.74-9.35 147.74-5.9 147.74-2.45 146.39 0.95 145.04 4.35 142.84 6.8 140.64 9.25 137.79 11L137.79 11Q132.09 14.5 125.94 14.5L125.94 14.5Q121.79 14.5 118.71 12.45 115.64 10.4 115.64 7.8 115.64 5.2 118.09 5.2L118.09 5.2Q119.04 5.2 121.94 7.85L121.94 7.85Q123.04 8.85 124.96 9.68 126.89 10.5 129.26 10.5 131.64 10.5 134.24 9.6 136.84 8.7 139.11 7.03 141.39 5.35 142.79 2.58 144.19-0.2 144.19-3.63 144.19-7.05 142.39-9.45 140.59-11.85 138.04-13.2 135.49-14.55 132.94-15.83 130.39-17.1 128.59-19.1 126.79-21.1 126.79-23.98 126.79-26.85 128.06-29.1 129.34-31.35 131.29-32.5L131.29-32.5Q134.99-34.8 138.64-34.8 142.29-34.8 144.59-33.1 146.89-31.4 146.89-29.2L146.89-29.2Q146.89-27.9 146.24-27.23 145.59-26.55 144.74-26.55 143.89-26.55 143.31-27.03 142.74-27.5 142.04-28.35ZM151.39-2.1L151.74-12 151.39-20.35Q151.39-21.4 152.06-22.1 152.74-22.8 153.69-22.8 154.64-22.8 155.24-22.13 155.84-21.45 155.84-20.45 155.84-19.45 155.79-18.95L155.79-18.95Q158.69-22.8 161.94-22.8L161.94-22.8Q165.74-22.8 167.39-18.25L167.39-18.25Q170.59-22.8 174.29-22.8L174.29-22.8Q179.04-22.8 180.44-15.75L180.44-15.75 182.19-7.15Q182.44-5.95 183.39-4.63 184.34-3.3 184.34-2.13 184.34-0.95 183.61-0.33 182.89 0.3 181.89 0.3L181.89 0.3Q179.59 0.3 178.89-3.65L178.89-3.65 177.04-14.1Q176.69-16.3 175.59-17.7 174.49-19.1 172.74-19.1L172.74-19.1Q170.39-19.1 168.24-15.05L168.24-15.05 169.84-7.15Q170.09-5.95 171.04-4.63 171.99-3.3 171.99-2.13 171.99-0.95 171.26-0.33 170.54 0.3 169.54 0.3L169.54 0.3Q167.24 0.3 166.54-3.65L166.54-3.65 164.69-14.1Q164.34-16.15 162.99-17.63 161.64-19.1 159.76-19.1 157.89-19.1 156.76-17.65 155.64-16.2 155.56-14.78 155.49-13.35 155.49-12L155.49-12 155.84-2.1Q155.84-1.05 155.24-0.38 154.64 0.3 153.69 0.3 152.74 0.3 152.06-0.38 151.39-1.05 151.39-2.1L151.39-2.1ZM205.18-6.7Q205.53-5.8 206.66-4.28 207.78-2.75 207.78-1.8 207.78-0.85 207.28-0.28 206.78 0.3 205.93 0.3L205.93 0.3Q203.88 0.3 202.28-3.95L202.28-3.95 201.88-5.05Q199.33 0.3 194.23 0.3L194.23 0.3Q191.68 0.3 190.01-1.33 188.33-2.95 188.33-5.4L188.33-5.4Q188.33-9.2 190.93-11.95 193.53-14.7 197.73-14.9L197.73-14.9Q196.73-16.65 195.51-17.53 194.28-18.4 193.28-18.55 192.28-18.7 191.41-18.73 190.53-18.75 190.03-19.1 189.53-19.45 189.53-20.48 189.53-21.5 190.36-22.15 191.18-22.8 192.33-22.8L192.33-22.8Q195.58-22.8 198.73-19.55 201.88-16.3 204.23-9.35L204.23-9.35 205.18-6.7ZM196.48-12.25Q194.68-12.25 193.26-11.05 191.83-9.85 191.83-7.95 191.83-6.05 193.11-4.78 194.38-3.5 196.18-3.5 197.98-3.5 199.28-4.78 200.58-6.05 200.58-7.8L200.58-7.8Q200.58-9.05 200.13-10.13 199.68-11.2 199.58-11.45L199.58-11.45Q198.28-12.25 196.48-12.25ZM216.68-11.75L216.68-11.75 217.08-2.7Q217.08-1.35 216.41-0.53 215.73 0.3 214.78 0.3 213.83 0.3 213.23-0.48 212.63-1.25 212.63-2.6 212.63-3.95 212.88-6.45L212.88-6.45Q213.38-11.45 213.38-14.9L213.38-14.9Q213.38-16.4 212.46-17.78 211.53-19.15 211.53-20.25 211.53-21.35 212.28-22.08 213.03-22.8 213.98-22.8L213.98-22.8Q216.48-22.8 216.48-18.85L216.48-18.85 216.48-16.9Q217.98-19.6 220.08-21.2 222.18-22.8 223.93-22.8 225.68-22.8 226.61-21.93 227.53-21.05 227.53-19.6 227.53-18.15 226.83-17.18 226.13-16.2 225.33-16.2 224.53-16.2 224.11-16.63 223.68-17.05 223.48-17.53 223.28-18 222.73-18.43 222.18-18.85 221.33-18.85L221.33-18.85Q219.88-18.85 218.43-16.95 216.98-15.05 216.68-11.75ZM242.43-19.1L242.43-19.1Q242.18-19.1 236.18-19.5L236.18-19.5Q236.18-18.85 235.98-14.55 235.78-10.25 235.78-8.18 235.78-6.1 236.7-4.73 237.63-3.35 237.63-2.25 237.63-1.15 236.88-0.43 236.13 0.3 235.18 0.3L235.18 0.3Q232.68 0.3 232.68-3.65L232.68-3.65 232.48-13.8Q232.48-16.9 232.33-19.35L232.33-19.35 231.13-19.35Q230.43-19.35 229.98-19.78 229.53-20.2 229.53-20.95 229.53-21.7 229.98-22.13 230.43-22.55 231.13-22.55L231.13-22.55 232.18-22.55Q232.08-25.15 232.08-26.53 232.08-27.9 232.75-28.73 233.43-29.55 234.38-29.55 235.33-29.55 235.93-28.78 236.53-28 236.53-26.25 236.53-24.5 236.38-22.4L236.38-22.4 242.43-22.8Q244.38-22.8 244.38-20.95 244.38-19.1 242.43-19.1Z" opacity="1" transform="matrix(1,0,0,1,0,0)" fill="#9dbbeb" class="wordmark-text-0" data-fill-palette-color="primary" id="text-0"></path></svg></g></svg></g><g transform="matrix(1,0,0,1,0,99.38973705174872)"><svg viewBox="0 0 232.209792 20.4751533692222" height="20.4751533692222" width="232.209792"><g transform="matrix(1,0,0,1,0,0)"><svg width="232.209792" viewBox="4.85 -35.95 538.64 47.5" height="20.4751533692222" data-palette-color="#000000"><path d="M7 0L4.85 0 4.85-32.95 8.1-32.95 15-13.6Q15.65-11.8 16.3-9.98 16.95-8.15 17.6-6.3L17.6-6.3 17.8-6.3Q18.45-8.15 19.05-9.98 19.65-11.8 20.3-13.6L20.3-13.6 27.15-32.95 30.45-32.95 30.45 0 28.2 0 28.2-21.65Q28.2-23.7 28.3-26.08 28.4-28.45 28.5-30.55L28.5-30.55 28.3-30.55 25.75-23.2 18.65-3.6 16.65-3.6 9.5-23.2 6.9-30.55 6.7-30.55Q6.8-28.45 6.9-26.08 7-23.7 7-21.65L7-21.65 7 0ZM45.15 0.6L45.15 0.6Q43.7 0.6 42.45 0.2 41.2-0.2 40.25-1 39.3-1.8 38.75-3.05 38.2-4.3 38.2-6L38.2-6Q38.2-10 41.92-12.08 45.65-14.15 53.7-15.05L53.7-15.05Q53.7-16.4 53.5-17.78 53.3-19.15 52.65-20.23 52-21.3 50.9-21.98 49.8-22.65 48-22.65L48-22.65Q45.6-22.65 43.6-21.7 41.6-20.75 40.35-19.85L40.35-19.85 39.35-21.5Q40-21.95 40.92-22.5 41.85-23.05 43-23.5 44.15-23.95 45.5-24.28 46.85-24.6 48.3-24.6L48.3-24.6Q50.4-24.6 51.85-23.88 53.3-23.15 54.2-21.9 55.1-20.65 55.5-18.98 55.9-17.3 55.9-15.35L55.9-15.35 55.9 0 54 0 53.8-3.1 53.65-3.1Q51.8-1.65 49.67-0.53 47.55 0.6 45.15 0.6ZM45.55-1.3L45.55-1.3Q47.65-1.3 49.55-2.3 51.45-3.3 53.7-5.2L53.7-5.2 53.7-13.35Q50-12.9 47.45-12.25 44.9-11.6 43.35-10.7 41.8-9.8 41.12-8.65 40.45-7.5 40.45-6.1L40.45-6.1Q40.45-4.8 40.85-3.9 41.25-3 41.95-2.43 42.65-1.85 43.57-1.58 44.5-1.3 45.55-1.3ZM66.65 0L64.45 0 64.45-35.95 66.65-35.95 66.65-9.45 66.75-9.45 78.6-24 81.15-24 73.35-14.5 82.45 0 80 0 72.05-12.85 66.65-6.55 66.65 0ZM89.84 0L87.64 0 87.64-24 89.84-24 89.84 0ZM88.79-29.8L88.79-29.8Q87.94-29.8 87.37-30.35 86.79-30.9 86.79-31.75L86.79-31.75Q86.79-32.7 87.37-33.23 87.94-33.75 88.79-33.75L88.79-33.75Q89.64-33.75 90.22-33.23 90.79-32.7 90.79-31.75L90.79-31.75Q90.79-30.9 90.22-30.35 89.64-29.8 88.79-29.8ZM101.29 0L99.09 0 99.09-24 100.99-24 101.19-20.3 101.34-20.3Q103.19-22.15 105.14-23.38 107.09-24.6 109.59-24.6L109.59-24.6Q113.34-24.6 115.09-22.35 116.84-20.1 116.84-15.4L116.84-15.4 116.84 0 114.64 0 114.64-15.1Q114.64-18.95 113.37-20.78 112.09-22.6 109.14-22.6L109.14-22.6Q106.99-22.6 105.24-21.48 103.49-20.35 101.29-18.1L101.29-18.1 101.29 0ZM133.54 11.55L133.54 11.55Q128.99 11.55 126.34 9.75 123.69 7.95 123.69 4.9L123.69 4.9Q123.69 3.3 124.64 1.8 125.59 0.3 127.24-0.9L127.24-0.9 127.24-1.1Q126.34-1.65 125.74-2.6 125.14-3.55 125.14-4.95L125.14-4.95Q125.14-6.55 126.04-7.68 126.94-8.8 127.74-9.35L127.74-9.35 127.74-9.55Q126.59-10.55 125.66-12.25 124.74-13.95 124.74-16.15L124.74-16.15Q124.74-18 125.39-19.55 126.04-21.1 127.19-22.23 128.34-23.35 129.89-23.98 131.44-24.6 133.19-24.6L133.19-24.6Q134.19-24.6 134.99-24.43 135.79-24.25 136.34-24L136.34-24 144.49-24 144.49-22.15 138.89-22.15Q140.04-21.15 140.79-19.58 141.54-18 141.54-16.1L141.54-16.1Q141.54-14.25 140.89-12.7 140.24-11.15 139.11-10.03 137.99-8.9 136.46-8.28 134.94-7.65 133.19-7.65L133.19-7.65Q132.19-7.65 131.11-7.9 130.04-8.15 129.19-8.65L129.19-8.65Q128.39-8 127.81-7.2 127.24-6.4 127.24-5.2L127.24-5.2Q127.24-3.9 128.19-2.98 129.14-2.05 131.84-2.05L131.84-2.05 136.99-2.05Q141.04-2.05 142.96-0.73 144.89 0.6 144.89 3.45L144.89 3.45Q144.89 5 144.09 6.48 143.29 7.95 141.81 9.08 140.34 10.2 138.24 10.88 136.14 11.55 133.54 11.55ZM133.19-9.4L133.19-9.4Q134.44-9.4 135.56-9.88 136.69-10.35 137.54-11.25 138.39-12.15 138.89-13.4 139.39-14.65 139.39-16.15L139.39-16.15Q139.39-17.65 138.89-18.9 138.39-20.15 137.56-21 136.74-21.85 135.59-22.33 134.44-22.8 133.19-22.8L133.19-22.8Q131.89-22.8 130.76-22.33 129.64-21.85 128.79-21 127.94-20.15 127.44-18.93 126.94-17.7 126.94-16.15L126.94-16.15Q126.94-14.65 127.44-13.4 127.94-12.15 128.81-11.25 129.69-10.35 130.81-9.88 131.94-9.4 133.19-9.4ZM133.79 9.75L133.79 9.75Q135.79 9.75 137.44 9.22 139.09 8.7 140.24 7.85 141.39 7 142.01 5.93 142.64 4.85 142.64 3.7L142.64 3.7Q142.64 1.7 141.21 0.88 139.79 0.05 137.09 0.05L137.09 0.05 131.94 0.05Q131.54 0.05 130.71-0.03 129.89-0.1 128.94-0.35L128.94-0.35Q127.29 0.8 126.54 2.1 125.79 3.4 125.79 4.7L125.79 4.7Q125.79 6.95 127.86 8.35 129.94 9.75 133.79 9.75ZM178.83 0L160.28 0 160.28-32.95 178.33-32.95 178.33-30.95 162.58-30.95 162.58-18.5 175.78-18.5 175.78-16.5 162.58-16.5 162.58-2 178.83-2 178.83 0ZM192.88 0L190.28 0 181.28-24 183.68-24 189.08-8.95Q189.63-7.2 190.28-5.45 190.93-3.7 191.48-2.05L191.48-2.05 191.68-2.05Q192.28-3.7 192.91-5.45 193.53-7.2 194.13-8.95L194.13-8.95 199.53-24 201.78-24 192.88 0ZM216.08 0.6L216.08 0.6Q213.78 0.6 211.75-0.25 209.73-1.1 208.23-2.73 206.73-4.35 205.85-6.68 204.98-9 204.98-11.95L204.98-11.95Q204.98-14.9 205.85-17.25 206.73-19.6 208.2-21.23 209.68-22.85 211.55-23.73 213.43-24.6 215.43-24.6L215.43-24.6Q219.73-24.6 222.18-21.7 224.63-18.8 224.63-13.5L224.63-13.5Q224.63-13.05 224.63-12.6 224.63-12.15 224.53-11.7L224.53-11.7 207.23-11.7Q207.28-9.45 207.93-7.53 208.58-5.6 209.75-4.23 210.93-2.85 212.58-2.08 214.23-1.3 216.28-1.3L216.28-1.3Q218.23-1.3 219.8-1.88 221.38-2.45 222.73-3.45L222.73-3.45 223.63-1.75Q222.18-0.9 220.45-0.15 218.73 0.6 216.08 0.6ZM207.23-13.5L207.23-13.5 222.53-13.5Q222.53-18.15 220.63-20.43 218.73-22.7 215.48-22.7L215.48-22.7Q213.93-22.7 212.53-22.08 211.13-21.45 210-20.25 208.88-19.05 208.15-17.35 207.43-15.65 207.23-13.5ZM233.33 0L231.13 0 231.13-24 233.03-24 233.23-19.55 233.38-19.55Q234.58-21.8 236.3-23.2 238.03-24.6 240.18-24.6L240.18-24.6Q240.88-24.6 241.43-24.5 241.98-24.4 242.58-24.1L242.58-24.1 242.08-22.1Q241.48-22.35 241.03-22.43 240.58-22.5 239.88-22.5L239.88-22.5Q238.28-22.5 236.5-21.13 234.73-19.75 233.33-16.35L233.33-16.35 233.33 0ZM247.82 10.95L247.82 10.95Q246.47 10.95 245.37 10.45L245.37 10.45 245.87 8.5Q246.27 8.65 246.77 8.78 247.27 8.9 247.82 8.9L247.82 8.9Q250.07 8.9 251.57 7.1 253.07 5.3 253.97 2.55L253.97 2.55 254.62 0.45 244.77-24 247.17-24 252.97-8.9Q253.52-7.4 254.2-5.6 254.87-3.8 255.57-2.2L255.57-2.2 255.77-2.2Q256.32-3.8 256.9-5.6 257.47-7.4 257.97-8.9L257.97-8.9 263.12-24 265.37-24 255.87 3Q255.37 4.5 254.65 5.95 253.92 7.4 252.95 8.5 251.97 9.6 250.7 10.28 249.42 10.95 247.82 10.95ZM283.12 0L280.82 0 280.82-32.95 289.12-32.95Q291.92-32.95 294.14-32.48 296.37-32 297.89-30.9 299.42-29.8 300.24-28.05 301.07-26.3 301.07-23.75L301.07-23.75Q301.07-18.9 297.97-16.53 294.87-14.15 289.32-14.15L289.32-14.15 283.12-14.15 283.12 0ZM283.12-31L283.12-16.1 288.77-16.1Q293.82-16.1 296.27-17.9 298.72-19.7 298.72-23.75L298.72-23.75Q298.72-27.9 296.19-29.45 293.67-31 288.57-31L288.57-31 283.12-31ZM315.87 0.6L315.87 0.6Q313.57 0.6 311.54-0.25 309.52-1.1 308.02-2.73 306.52-4.35 305.64-6.68 304.77-9 304.77-11.95L304.77-11.95Q304.77-14.9 305.64-17.25 306.52-19.6 307.99-21.23 309.47-22.85 311.34-23.73 313.22-24.6 315.22-24.6L315.22-24.6Q319.52-24.6 321.97-21.7 324.42-18.8 324.42-13.5L324.42-13.5Q324.42-13.05 324.42-12.6 324.42-12.15 324.32-11.7L324.32-11.7 307.02-11.7Q307.07-9.45 307.72-7.53 308.37-5.6 309.54-4.23 310.72-2.85 312.37-2.08 314.02-1.3 316.07-1.3L316.07-1.3Q318.02-1.3 319.59-1.88 321.17-2.45 322.52-3.45L322.52-3.45 323.42-1.75Q321.97-0.9 320.24-0.15 318.52 0.6 315.87 0.6ZM307.02-13.5L307.02-13.5 322.32-13.5Q322.32-18.15 320.42-20.43 318.52-22.7 315.27-22.7L315.27-22.7Q313.72-22.7 312.32-22.08 310.92-21.45 309.79-20.25 308.67-19.05 307.94-17.35 307.22-15.65 307.02-13.5ZM333.11 0L330.91 0 330.91-24 332.81-24 333.01-20.3 333.16-20.3Q335.01-22.15 336.96-23.38 338.91-24.6 341.41-24.6L341.41-24.6Q345.16-24.6 346.91-22.35 348.66-20.1 348.66-15.4L348.66-15.4 348.66 0 346.46 0 346.46-15.1Q346.46-18.95 345.19-20.78 343.91-22.6 340.96-22.6L340.96-22.6Q338.81-22.6 337.06-21.48 335.31-20.35 333.11-18.1L333.11-18.1 333.11 0ZM359.71 0L357.51 0 357.51-24 359.41-24 359.61-20.3 359.76-20.3Q361.61-22.15 363.56-23.38 365.51-24.6 368.01-24.6L368.01-24.6Q371.76-24.6 373.51-22.35 375.26-20.1 375.26-15.4L375.26-15.4 375.26 0 373.06 0 373.06-15.1Q373.06-18.95 371.79-20.78 370.51-22.6 367.56-22.6L367.56-22.6Q365.41-22.6 363.66-21.48 361.91-20.35 359.71-18.1L359.71-18.1 359.71 0ZM383.16 10.95L383.16 10.95Q381.81 10.95 380.71 10.45L380.71 10.45 381.21 8.5Q381.61 8.65 382.11 8.78 382.61 8.9 383.16 8.9L383.16 8.9Q385.41 8.9 386.91 7.1 388.41 5.3 389.31 2.55L389.31 2.55 389.96 0.45 380.11-24 382.51-24 388.31-8.9Q388.86-7.4 389.53-5.6 390.21-3.8 390.91-2.2L390.91-2.2 391.11-2.2Q391.66-3.8 392.23-5.6 392.81-7.4 393.31-8.9L393.31-8.9 398.46-24 400.71-24 391.21 3Q390.71 4.5 389.98 5.95 389.26 7.4 388.28 8.5 387.31 9.6 386.03 10.28 384.76 10.95 383.16 10.95ZM427.85 0.6L427.85 0.6Q424.8 0.6 422.25-0.6 419.7-1.8 417.88-4.03 416.05-6.25 415.05-9.43 414.05-12.6 414.05-16.55L414.05-16.55Q414.05-20.45 415.08-23.6 416.1-26.75 417.95-28.98 419.8-31.2 422.38-32.38 424.95-33.55 428.1-33.55L428.1-33.55Q431-33.55 433.2-32.35 435.4-31.15 436.7-29.6L436.7-29.6 435.35-28.05Q434-29.6 432.2-30.53 430.4-31.45 428.15-31.45L428.15-31.45Q425.45-31.45 423.28-30.4 421.1-29.35 419.58-27.43 418.05-25.5 417.25-22.75 416.45-20 416.45-16.55L416.45-16.55Q416.45-13.1 417.25-10.33 418.05-7.55 419.55-5.6 421.05-3.65 423.18-2.58 425.3-1.5 427.95-1.5L427.95-1.5Q430.5-1.5 432.5-2.53 434.5-3.55 436.3-5.55L436.3-5.55 437.65-4.1Q435.75-1.9 433.4-0.65 431.05 0.6 427.85 0.6ZM452.85 0.6L452.85 0.6Q450.7 0.6 448.75-0.25 446.8-1.1 445.33-2.7 443.85-4.3 442.98-6.63 442.1-8.95 442.1-11.95L442.1-11.95Q442.1-14.95 442.98-17.32 443.85-19.7 445.33-21.3 446.8-22.9 448.75-23.75 450.7-24.6 452.85-24.6L452.85-24.6Q455-24.6 456.98-23.75 458.95-22.9 460.43-21.3 461.9-19.7 462.78-17.32 463.65-14.95 463.65-11.95L463.65-11.95Q463.65-8.95 462.78-6.63 461.9-4.3 460.43-2.7 458.95-1.1 456.98-0.25 455 0.6 452.85 0.6ZM452.85-1.35L452.85-1.35Q454.65-1.35 456.23-2.13 457.8-2.9 458.93-4.3 460.05-5.7 460.7-7.65 461.35-9.6 461.35-11.95L461.35-11.95Q461.35-14.35 460.7-16.3 460.05-18.25 458.93-19.68 457.8-21.1 456.23-21.88 454.65-22.65 452.85-22.65L452.85-22.65Q451.05-22.65 449.5-21.88 447.95-21.1 446.83-19.68 445.7-18.25 445.05-16.3 444.4-14.35 444.4-11.95L444.4-11.95Q444.4-9.6 445.05-7.65 445.7-5.7 446.83-4.3 447.95-2.9 449.5-2.13 451.05-1.35 452.85-1.35ZM477.75 0.6L477.75 0.6Q474 0.6 472.25-1.65 470.5-3.9 470.5-8.6L470.5-8.6 470.5-24 472.7-24 472.7-8.9Q472.7-5.05 473.97-3.23 475.25-1.4 478.15-1.4L478.15-1.4Q480.3-1.4 482.05-2.58 483.8-3.75 485.9-6.3L485.9-6.3 485.9-24 488.1-24 488.1 0 486.25 0 486-4 485.9-4Q484.15-1.9 482.2-0.65 480.25 0.6 477.75 0.6ZM499.5 0L497.3 0 497.3-24 499.2-24 499.4-20.3 499.55-20.3Q501.4-22.15 503.35-23.38 505.3-24.6 507.8-24.6L507.8-24.6Q511.55-24.6 513.3-22.35 515.05-20.1 515.05-15.4L515.05-15.4 515.05 0 512.85 0 512.85-15.1Q512.85-18.95 511.57-20.78 510.3-22.6 507.35-22.6L507.35-22.6Q505.2-22.6 503.45-21.48 501.7-20.35 499.5-18.1L499.5-18.1 499.5 0ZM530.44 0.6L530.44 0.6Q528.69 0.6 527.54 0.08 526.39-0.45 525.69-1.4 524.99-2.35 524.72-3.7 524.44-5.05 524.44-6.65L524.44-6.65 524.44-22.1 520.69-22.1 520.69-23.8 524.49-24 524.79-30.95 526.69-30.95 526.69-24 533.64-24 533.64-22.1 526.69-22.1 526.69-6.45Q526.69-5.3 526.87-4.38 527.04-3.45 527.49-2.78 527.94-2.1 528.72-1.73 529.49-1.35 530.74-1.35L530.74-1.35Q531.44-1.35 532.27-1.58 533.09-1.8 533.74-2.1L533.74-2.1 534.34-0.3Q533.29 0.1 532.24 0.35 531.19 0.6 530.44 0.6ZM542.19-8.95L540.54-8.95 540.24-29.95 540.24-33.5 542.54-33.5 542.49-29.95 542.19-8.95ZM541.39 0.6L541.39 0.6Q540.54 0.6 539.89 0 539.24-0.6 539.24-1.65L539.24-1.65Q539.24-2.75 539.89-3.35 540.54-3.95 541.39-3.95L541.39-3.95Q542.24-3.95 542.87-3.35 543.49-2.75 543.49-1.65L543.49-1.65Q543.49-0.6 542.87 0 542.24 0.6 541.39 0.6Z" opacity="1" transform="matrix(1,0,0,1,0,0)" fill="#000000" class="slogan-text-1" data-fill-palette-color="secondary" id="text-1"></path></svg></g></svg></g></svg></g></svg></g><g><svg viewBox="0 0 165.65327856178183 165.65327856178183" height="165.65327856178183" width="165.65327856178183"><g><svg xmlns="http://www.w3.org/2000/svg" xmlns:xlink="http://www.w3.org/1999/xlink" version="1.1" x="0" y="0" viewBox="5 5 90 90" style="enable-background:new 0 0 100 100;" xml:space="preserve" height="165.65327856178183" width="165.65327856178183" class="icon-icon-0" data-fill-palette-color="accent" id="icon-0"></svg></g></svg></g></svg></g></svg></g><defs></defs><mask id="9b9d9e6b-2375-457d-b579-44c1ab08a402"><g id="SvgjsG1727"><svg viewBox="0 0 395.52 112.93382370912359" height="112.93382370912359" width="395.52"><g><svg viewBox="0 0 395.52 112.93382370912359" height="112.93382370912359" width="395.52"><g><svg viewBox="0 0 580.1555511439116 165.65327856178183" height="112.93382370912359" width="395.52"><g transform="matrix(1,0,0,1,184.63555114391158,22.894194070405455)"><svg viewBox="0 0 395.52 119.86489042097092" height="119.86489042097092" width="395.52"><g id="SvgjsG1726"><svg viewBox="0 0 395.52 119.86489042097092" height="119.86489042097092" width="395.52" id="SvgjsSvg1725"><g><svg viewBox="0 0 395.52 80.40746446961896" height="80.40746446961896" width="395.52"><g transform="matrix(1,0,0,1,0,0)"><svg width="395.52" viewBox="1.65 -34.8 242.73 49.349999999999994" height="80.40746446961896" data-palette-color="#9dbbeb"><path d="M19.9-34.8L19.9-34.8Q24.4-34.8 26.95-32.27 29.5-29.75 29.5-24.83 29.5-19.9 25.95-15.8 22.4-11.7 17-11.7L17-11.7Q13.9-11.7 13-12.5L13-12.5Q12.35-13.15 12.35-14.08 12.35-15 12.95-15.53 13.55-16.05 14.33-16.05 15.1-16.05 16.43-15.55 17.75-15.05 19.05-15.05L19.05-15.05Q21.85-15.05 23.93-17.32 26-19.6 26-22.98 26-26.35 23.78-28.85 21.55-31.35 18-31.35 14.45-31.35 11.4-29.45L11.4-29.45Q10.8-14.15 10.8 10.2L10.8 10.2Q10.8 14.55 8.05 14.55L8.05 14.55Q7 14.55 6.18 13.75 5.35 12.95 5.35 11.73 5.35 10.5 6.43 9 7.5 7.5 7.5 5.85L7.5 5.85Q7.5-10.3 7.35-15.3L7.35-15.3Q7.1-23.65 7.1-25.8L7.1-25.8Q5.7-24.15 4.85-22.4 4-20.65 3-20.65L3-20.65Q1.65-20.65 1.65-22.05 1.65-23.45 3.2-25.53 4.75-27.6 7.18-29.68 9.6-31.75 13.08-33.27 16.55-34.8 19.9-34.8ZM39.6-9.95L39.6-9.95 33.65-10.45Q32.8-10.45 32.3-10.3L32.3-10.3Q32.6-7.45 34.72-5.55 36.85-3.65 39.75-3.65L39.75-3.65Q42.55-3.65 44.8-5.7L44.8-5.7Q45.6-6.4 46-6.4 46.4-6.4 46.7-6.1 47-5.8 47-5.45L47-5.45Q47-4 44.17-1.85 41.35 0.3 37.77 0.3 34.2 0.3 31.57-2.6 28.95-5.5 28.95-9.8L28.95-9.8Q28.95-15.3 33.1-19.05 37.25-22.8 42.25-22.8L42.25-22.8Q44.35-22.8 45.67-22.08 47-21.35 47-20.23 47-19.1 46.32-18.4 45.65-17.7 45-17.7 44.35-17.7 42.77-18.3 41.2-18.9 39.75-18.9L39.75-18.9Q37.05-18.9 35.07-17.28 33.1-15.65 32.45-13.25L32.45-13.25 39.35-13.65Q41.65-13.65 41.65-11.85L41.65-11.85Q41.65-9.95 39.6-9.95ZM55.15-14.3L55.15-14.3 55.45-2.1Q55.45-1.05 54.85-0.38 54.25 0.3 53.3 0.3 52.35 0.3 51.67-0.38 51-1.05 51-2.1L51-2.1 51.35-12Q51.35-12 51-20.35L51-20.35Q51-21.4 51.67-22.1 52.35-22.8 53.3-22.8 54.25-22.8 54.85-22.13 55.45-21.45 55.45-20.45 55.45-19.45 55.4-18.95L55.4-18.95Q58.2-22.8 61.85-22.8L61.85-22.8Q67.09-22.8 68.59-15.75L68.59-15.75 70.5-7.15Q70.8-6 71.72-4.67 72.65-3.35 72.65-2.3L72.65-2.3Q72.65 0.3 70.15 0.3 67.65 0.3 66.9-3.65L66.9-3.65 65-14.1Q64.05-19.1 59.85-19.1L59.85-19.1Q57.7-19.1 56.5-17.65 55.3-16.2 55.15-14.3ZM81.54-14.3L81.54-14.3 81.84-2.1Q81.84-1.05 81.24-0.38 80.64 0.3 79.69 0.3 78.74 0.3 78.07-0.38 77.39-1.05 77.39-2.1L77.39-2.1 77.74-12Q77.74-12 77.39-20.35L77.39-20.35Q77.39-21.4 78.07-22.1 78.74-22.8 79.69-22.8 80.64-22.8 81.24-22.13 81.84-21.45 81.84-20.45 81.84-19.45 81.79-18.95L81.79-18.95Q84.59-22.8 88.24-22.8L88.24-22.8Q93.49-22.8 94.99-15.75L94.99-15.75 96.89-7.15Q97.19-6 98.12-4.67 99.04-3.35 99.04-2.3L99.04-2.3Q99.04 0.3 96.54 0.3 94.04 0.3 93.29-3.65L93.29-3.65 91.39-14.1Q90.44-19.1 86.24-19.1L86.24-19.1Q84.09-19.1 82.89-17.65 81.69-16.2 81.54-14.3ZM118.84-6.35L118.84-6.35 118.74 0.65Q118.74 5.55 114.44 10.03 110.14 14.5 104.84 14.5L104.84 14.5Q102.19 14.5 100.24 13 98.29 11.5 98.29 9.75L98.29 9.75Q98.29 8.85 98.92 8.15 99.54 7.45 100.42 7.45 101.29 7.45 102.02 7.95 102.74 8.45 103.37 9.05 103.99 9.65 105.27 10.15 106.54 10.65 108.14 10.65L108.14 10.65Q111.29 10.65 113.54 8.33 115.79 6 115.79 2.8L115.79 2.8Q115.79-1.6 115.74-3.45L115.74-3.45Q113.44 0.3 109.99 0.3L109.99 0.3Q107.14 0.3 105.47-1.75 103.79-3.8 103.14-6.75L103.14-6.75 101.24-15.35Q100.94-16.8 99.92-17.93 98.89-19.05 98.89-20.2 98.89-21.35 99.69-22.08 100.49-22.8 101.44-22.8 102.39-22.8 102.99-22.45 103.59-22.1 103.99-21.4L103.99-21.4Q104.54-20.35 104.84-18.85L104.84-18.85 107.04-8.4Q107.59-5.95 108.52-4.67 109.44-3.4 111.39-3.4 113.34-3.4 114.52-4.88 115.69-6.35 115.69-8.55L115.69-8.55 115.34-19.8Q115.34-21.15 116.02-21.98 116.69-22.8 117.64-22.8 118.59-22.8 119.19-22.03 119.79-21.25 119.79-19.93 119.79-18.6 119.49-16.2L119.49-16.2Q118.84-11 118.84-6.35ZM142.04-28.35L142.04-28.35Q139.19-31.8 136.19-31.8L136.19-31.8Q133.84-31.8 132.24-30.2 130.64-28.6 130.64-26.4 130.64-24.2 131.91-22.75 133.19-21.3 135.09-20.35 136.99-19.4 139.19-18.13 141.39-16.85 143.29-15.48 145.19-14.1 146.46-11.73 147.74-9.35 147.74-5.9 147.74-2.45 146.39 0.95 145.04 4.35 142.84 6.8 140.64 9.25 137.79 11L137.79 11Q132.09 14.5 125.94 14.5L125.94 14.5Q121.79 14.5 118.71 12.45 115.64 10.4 115.64 7.8 115.64 5.2 118.09 5.2L118.09 5.2Q119.04 5.2 121.94 7.85L121.94 7.85Q123.04 8.85 124.96 9.68 126.89 10.5 129.26 10.5 131.64 10.5 134.24 9.6 136.84 8.7 139.11 7.03 141.39 5.35 142.79 2.58 144.19-0.2 144.19-3.63 144.19-7.05 142.39-9.45 140.59-11.85 138.04-13.2 135.49-14.55 132.94-15.83 130.39-17.1 128.59-19.1 126.79-21.1 126.79-23.98 126.79-26.85 128.06-29.1 129.34-31.35 131.29-32.5L131.29-32.5Q134.99-34.8 138.64-34.8 142.29-34.8 144.59-33.1 146.89-31.4 146.89-29.2L146.89-29.2Q146.89-27.9 146.24-27.23 145.59-26.55 144.74-26.55 143.89-26.55 143.31-27.03 142.74-27.5 142.04-28.35ZM151.39-2.1L151.74-12 151.39-20.35Q151.39-21.4 152.06-22.1 152.74-22.8 153.69-22.8 154.64-22.8 155.24-22.13 155.84-21.45 155.84-20.45 155.84-19.45 155.79-18.95L155.79-18.95Q158.69-22.8 161.94-22.8L161.94-22.8Q165.74-22.8 167.39-18.25L167.39-18.25Q170.59-22.8 174.29-22.8L174.29-22.8Q179.04-22.8 180.44-15.75L180.44-15.75 182.19-7.15Q182.44-5.95 183.39-4.63 184.34-3.3 184.34-2.13 184.34-0.95 183.61-0.33 182.89 0.3 181.89 0.3L181.89 0.3Q179.59 0.3 178.89-3.65L178.89-3.65 177.04-14.1Q176.69-16.3 175.59-17.7 174.49-19.1 172.74-19.1L172.74-19.1Q170.39-19.1 168.24-15.05L168.24-15.05 169.84-7.15Q170.09-5.95 171.04-4.63 171.99-3.3 171.99-2.13 171.99-0.95 171.26-0.33 170.54 0.3 169.54 0.3L169.54 0.3Q167.24 0.3 166.54-3.65L166.54-3.65 164.69-14.1Q164.34-16.15 162.99-17.63 161.64-19.1 159.76-19.1 157.89-19.1 156.76-17.65 155.64-16.2 155.56-14.78 155.49-13.35 155.49-12L155.49-12 155.84-2.1Q155.84-1.05 155.24-0.38 154.64 0.3 153.69 0.3 152.74 0.3 152.06-0.38 151.39-1.05 151.39-2.1L151.39-2.1ZM205.18-6.7Q205.53-5.8 206.66-4.28 207.78-2.75 207.78-1.8 207.78-0.85 207.28-0.28 206.78 0.3 205.93 0.3L205.93 0.3Q203.88 0.3 202.28-3.95L202.28-3.95 201.88-5.05Q199.33 0.3 194.23 0.3L194.23 0.3Q191.68 0.3 190.01-1.33 188.33-2.95 188.33-5.4L188.33-5.4Q188.33-9.2 190.93-11.95 193.53-14.7 197.73-14.9L197.73-14.9Q196.73-16.65 195.51-17.53 194.28-18.4 193.28-18.55 192.28-18.7 191.41-18.73 190.53-18.75 190.03-19.1 189.53-19.45 189.53-20.48 189.53-21.5 190.36-22.15 191.18-22.8 192.33-22.8L192.33-22.8Q195.58-22.8 198.73-19.55 201.88-16.3 204.23-9.35L204.23-9.35 205.18-6.7ZM196.48-12.25Q194.68-12.25 193.26-11.05 191.83-9.85 191.83-7.95 191.83-6.05 193.11-4.78 194.38-3.5 196.18-3.5 197.98-3.5 199.28-4.78 200.58-6.05 200.58-7.8L200.58-7.8Q200.58-9.05 200.13-10.13 199.68-11.2 199.58-11.45L199.58-11.45Q198.28-12.25 196.48-12.25ZM216.68-11.75L216.68-11.75 217.08-2.7Q217.08-1.35 216.41-0.53 215.73 0.3 214.78 0.3 213.83 0.3 213.23-0.48 212.63-1.25 212.63-2.6 212.63-3.95 212.88-6.45L212.88-6.45Q213.38-11.45 213.38-14.9L213.38-14.9Q213.38-16.4 212.46-17.78 211.53-19.15 211.53-20.25 211.53-21.35 212.28-22.08 213.03-22.8 213.98-22.8L213.98-22.8Q216.48-22.8 216.48-18.85L216.48-18.85 216.48-16.9Q217.98-19.6 220.08-21.2 222.18-22.8 223.93-22.8 225.68-22.8 226.61-21.93 227.53-21.05 227.53-19.6 227.53-18.15 226.83-17.18 226.13-16.2 225.33-16.2 224.53-16.2 224.11-16.63 223.68-17.05 223.48-17.53 223.28-18 222.73-18.43 222.18-18.85 221.33-18.85L221.33-18.85Q219.88-18.85 218.43-16.95 216.98-15.05 216.68-11.75ZM242.43-19.1L242.43-19.1Q242.18-19.1 236.18-19.5L236.18-19.5Q236.18-18.85 235.98-14.55 235.78-10.25 235.78-8.18 235.78-6.1 236.7-4.73 237.63-3.35 237.63-2.25 237.63-1.15 236.88-0.43 236.13 0.3 235.18 0.3L235.18 0.3Q232.68 0.3 232.68-3.65L232.68-3.65 232.48-13.8Q232.48-16.9 232.33-19.35L232.33-19.35 231.13-19.35Q230.43-19.35 229.98-19.78 229.53-20.2 229.53-20.95 229.53-21.7 229.98-22.13 230.43-22.55 231.13-22.55L231.13-22.55 232.18-22.55Q232.08-25.15 232.08-26.53 232.08-27.9 232.75-28.73 233.43-29.55 234.38-29.55 235.33-29.55 235.93-28.78 236.53-28 236.53-26.25 236.53-24.5 236.38-22.4L236.38-22.4 242.43-22.8Q244.38-22.8 244.38-20.95 244.38-19.1 242.43-19.1Z" opacity="1" transform="matrix(1,0,0,1,0,0)" fill="black" class="wordmark-text-0" id="SvgjsPath1724"></path></svg></g></svg></g><g transform="matrix(1,0,0,1,0,99.38973705174872)"><svg viewBox="0 0 232.209792 20.4751533692222" height="20.4751533692222" width="232.209792"><g transform="matrix(1,0,0,1,0,0)"><svg width="232.209792" viewBox="4.85 -35.95 538.64 47.5" height="20.4751533692222" data-palette-color="#000000"><path d="M7 0L4.85 0 4.85-32.95 8.1-32.95 15-13.6Q15.65-11.8 16.3-9.98 16.95-8.15 17.6-6.3L17.6-6.3 17.8-6.3Q18.45-8.15 19.05-9.98 19.65-11.8 20.3-13.6L20.3-13.6 27.15-32.95 30.45-32.95 30.45 0 28.2 0 28.2-21.65Q28.2-23.7 28.3-26.08 28.4-28.45 28.5-30.55L28.5-30.55 28.3-30.55 25.75-23.2 18.65-3.6 16.65-3.6 9.5-23.2 6.9-30.55 6.7-30.55Q6.8-28.45 6.9-26.08 7-23.7 7-21.65L7-21.65 7 0ZM45.15 0.6L45.15 0.6Q43.7 0.6 42.45 0.2 41.2-0.2 40.25-1 39.3-1.8 38.75-3.05 38.2-4.3 38.2-6L38.2-6Q38.2-10 41.92-12.08 45.65-14.15 53.7-15.05L53.7-15.05Q53.7-16.4 53.5-17.78 53.3-19.15 52.65-20.23 52-21.3 50.9-21.98 49.8-22.65 48-22.65L48-22.65Q45.6-22.65 43.6-21.7 41.6-20.75 40.35-19.85L40.35-19.85 39.35-21.5Q40-21.95 40.92-22.5 41.85-23.05 43-23.5 44.15-23.95 45.5-24.28 46.85-24.6 48.3-24.6L48.3-24.6Q50.4-24.6 51.85-23.88 53.3-23.15 54.2-21.9 55.1-20.65 55.5-18.98 55.9-17.3 55.9-15.35L55.9-15.35 55.9 0 54 0 53.8-3.1 53.65-3.1Q51.8-1.65 49.67-0.53 47.55 0.6 45.15 0.6ZM45.55-1.3L45.55-1.3Q47.65-1.3 49.55-2.3 51.45-3.3 53.7-5.2L53.7-5.2 53.7-13.35Q50-12.9 47.45-12.25 44.9-11.6 43.35-10.7 41.8-9.8 41.12-8.65 40.45-7.5 40.45-6.1L40.45-6.1Q40.45-4.8 40.85-3.9 41.25-3 41.95-2.43 42.65-1.85 43.57-1.58 44.5-1.3 45.55-1.3ZM66.65 0L64.45 0 64.45-35.95 66.65-35.95 66.65-9.45 66.75-9.45 78.6-24 81.15-24 73.35-14.5 82.45 0 80 0 72.05-12.85 66.65-6.55 66.65 0ZM89.84 0L87.64 0 87.64-24 89.84-24 89.84 0ZM88.79-29.8L88.79-29.8Q87.94-29.8 87.37-30.35 86.79-30.9 86.79-31.75L86.79-31.75Q86.79-32.7 87.37-33.23 87.94-33.75 88.79-33.75L88.79-33.75Q89.64-33.75 90.22-33.23 90.79-32.7 90.79-31.75L90.79-31.75Q90.79-30.9 90.22-30.35 89.64-29.8 88.79-29.8ZM101.29 0L99.09 0 99.09-24 100.99-24 101.19-20.3 101.34-20.3Q103.19-22.15 105.14-23.38 107.09-24.6 109.59-24.6L109.59-24.6Q113.34-24.6 115.09-22.35 116.84-20.1 116.84-15.4L116.84-15.4 116.84 0 114.64 0 114.64-15.1Q114.64-18.95 113.37-20.78 112.09-22.6 109.14-22.6L109.14-22.6Q106.99-22.6 105.24-21.48 103.49-20.35 101.29-18.1L101.29-18.1 101.29 0ZM133.54 11.55L133.54 11.55Q128.99 11.55 126.34 9.75 123.69 7.95 123.69 4.9L123.69 4.9Q123.69 3.3 124.64 1.8 125.59 0.3 127.24-0.9L127.24-0.9 127.24-1.1Q126.34-1.65 125.74-2.6 125.14-3.55 125.14-4.95L125.14-4.95Q125.14-6.55 126.04-7.68 126.94-8.8 127.74-9.35L127.74-9.35 127.74-9.55Q126.59-10.55 125.66-12.25 124.74-13.95 124.74-16.15L124.74-16.15Q124.74-18 125.39-19.55 126.04-21.1 127.19-22.23 128.34-23.35 129.89-23.98 131.44-24.6 133.19-24.6L133.19-24.6Q134.19-24.6 134.99-24.43 135.79-24.25 136.34-24L136.34-24 144.49-24 144.49-22.15 138.89-22.15Q140.04-21.15 140.79-19.58 141.54-18 141.54-16.1L141.54-16.1Q141.54-14.25 140.89-12.7 140.24-11.15 139.11-10.03 137.99-8.9 136.46-8.28 134.94-7.65 133.19-7.65L133.19-7.65Q132.19-7.65 131.11-7.9 130.04-8.15 129.19-8.65L129.19-8.65Q128.39-8 127.81-7.2 127.24-6.4 127.24-5.2L127.24-5.2Q127.24-3.9 128.19-2.98 129.14-2.05 131.84-2.05L131.84-2.05 136.99-2.05Q141.04-2.05 142.96-0.73 144.89 0.6 144.89 3.45L144.89 3.45Q144.89 5 144.09 6.48 143.29 7.95 141.81 9.08 140.34 10.2 138.24 10.88 136.14 11.55 133.54 11.55ZM133.19-9.4L133.19-9.4Q134.44-9.4 135.56-9.88 136.69-10.35 137.54-11.25 138.39-12.15 138.89-13.4 139.39-14.65 139.39-16.15L139.39-16.15Q139.39-17.65 138.89-18.9 138.39-20.15 137.56-21 136.74-21.85 135.59-22.33 134.44-22.8 133.19-22.8L133.19-22.8Q131.89-22.8 130.76-22.33 129.64-21.85 128.79-21 127.94-20.15 127.44-18.93 126.94-17.7 126.94-16.15L126.94-16.15Q126.94-14.65 127.44-13.4 127.94-12.15 128.81-11.25 129.69-10.35 130.81-9.88 131.94-9.4 133.19-9.4ZM133.79 9.75L133.79 9.75Q135.79 9.75 137.44 9.22 139.09 8.7 140.24 7.85 141.39 7 142.01 5.93 142.64 4.85 142.64 3.7L142.64 3.7Q142.64 1.7 141.21 0.88 139.79 0.05 137.09 0.05L137.09 0.05 131.94 0.05Q131.54 0.05 130.71-0.03 129.89-0.1 128.94-0.35L128.94-0.35Q127.29 0.8 126.54 2.1 125.79 3.4 125.79 4.7L125.79 4.7Q125.79 6.95 127.86 8.35 129.94 9.75 133.79 9.75ZM178.83 0L160.28 0 160.28-32.95 178.33-32.95 178.33-30.95 162.58-30.95 162.58-18.5 175.78-18.5 175.78-16.5 162.58-16.5 162.58-2 178.83-2 178.83 0ZM192.88 0L190.28 0 181.28-24 183.68-24 189.08-8.95Q189.63-7.2 190.28-5.45 190.93-3.7 191.48-2.05L191.48-2.05 191.68-2.05Q192.28-3.7 192.91-5.45 193.53-7.2 194.13-8.95L194.13-8.95 199.53-24 201.78-24 192.88 0ZM216.08 0.6L216.08 0.6Q213.78 0.6 211.75-0.25 209.73-1.1 208.23-2.73 206.73-4.35 205.85-6.68 204.98-9 204.98-11.95L204.98-11.95Q204.98-14.9 205.85-17.25 206.73-19.6 208.2-21.23 209.68-22.85 211.55-23.73 213.43-24.6 215.43-24.6L215.43-24.6Q219.73-24.6 222.18-21.7 224.63-18.8 224.63-13.5L224.63-13.5Q224.63-13.05 224.63-12.6 224.63-12.15 224.53-11.7L224.53-11.7 207.23-11.7Q207.28-9.45 207.93-7.53 208.58-5.6 209.75-4.23 210.93-2.85 212.58-2.08 214.23-1.3 216.28-1.3L216.28-1.3Q218.23-1.3 219.8-1.88 221.38-2.45 222.73-3.45L222.73-3.45 223.63-1.75Q222.18-0.9 220.45-0.15 218.73 0.6 216.08 0.6ZM207.23-13.5L207.23-13.5 222.53-13.5Q222.53-18.15 220.63-20.43 218.73-22.7 215.48-22.7L215.48-22.7Q213.93-22.7 212.53-22.08 211.13-21.45 210-20.25 208.88-19.05 208.15-17.35 207.43-15.65 207.23-13.5ZM233.33 0L231.13 0 231.13-24 233.03-24 233.23-19.55 233.38-19.55Q234.58-21.8 236.3-23.2 238.03-24.6 240.18-24.6L240.18-24.6Q240.88-24.6 241.43-24.5 241.98-24.4 242.58-24.1L242.58-24.1 242.08-22.1Q241.48-22.35 241.03-22.43 240.58-22.5 239.88-22.5L239.88-22.5Q238.28-22.5 236.5-21.13 234.73-19.75 233.33-16.35L233.33-16.35 233.33 0ZM247.82 10.95L247.82 10.95Q246.47 10.95 245.37 10.45L245.37 10.45 245.87 8.5Q246.27 8.65 246.77 8.78 247.27 8.9 247.82 8.9L247.82 8.9Q250.07 8.9 251.57 7.1 253.07 5.3 253.97 2.55L253.97 2.55 254.62 0.45 244.77-24 247.17-24 252.97-8.9Q253.52-7.4 254.2-5.6 254.87-3.8 255.57-2.2L255.57-2.2 255.77-2.2Q256.32-3.8 256.9-5.6 257.47-7.4 257.97-8.9L257.97-8.9 263.12-24 265.37-24 255.87 3Q255.37 4.5 254.65 5.95 253.92 7.4 252.95 8.5 251.97 9.6 250.7 10.28 249.42 10.95 247.82 10.95ZM283.12 0L280.82 0 280.82-32.95 289.12-32.95Q291.92-32.95 294.14-32.48 296.37-32 297.89-30.9 299.42-29.8 300.24-28.05 301.07-26.3 301.07-23.75L301.07-23.75Q301.07-18.9 297.97-16.53 294.87-14.15 289.32-14.15L289.32-14.15 283.12-14.15 283.12 0ZM283.12-31L283.12-16.1 288.77-16.1Q293.82-16.1 296.27-17.9 298.72-19.7 298.72-23.75L298.72-23.75Q298.72-27.9 296.19-29.45 293.67-31 288.57-31L288.57-31 283.12-31ZM315.87 0.6L315.87 0.6Q313.57 0.6 311.54-0.25 309.52-1.1 308.02-2.73 306.52-4.35 305.64-6.68 304.77-9 304.77-11.95L304.77-11.95Q304.77-14.9 305.64-17.25 306.52-19.6 307.99-21.23 309.47-22.85 311.34-23.73 313.22-24.6 315.22-24.6L315.22-24.6Q319.52-24.6 321.97-21.7 324.42-18.8 324.42-13.5L324.42-13.5Q324.42-13.05 324.42-12.6 324.42-12.15 324.32-11.7L324.32-11.7 307.02-11.7Q307.07-9.45 307.72-7.53 308.37-5.6 309.54-4.23 310.72-2.85 312.37-2.08 314.02-1.3 316.07-1.3L316.07-1.3Q318.02-1.3 319.59-1.88 321.17-2.45 322.52-3.45L322.52-3.45 323.42-1.75Q321.97-0.9 320.24-0.15 318.52 0.6 315.87 0.6ZM307.02-13.5L307.02-13.5 322.32-13.5Q322.32-18.15 320.42-20.43 318.52-22.7 315.27-22.7L315.27-22.7Q313.72-22.7 312.32-22.08 310.92-21.45 309.79-20.25 308.67-19.05 307.94-17.35 307.22-15.65 307.02-13.5ZM333.11 0L330.91 0 330.91-24 332.81-24 333.01-20.3 333.16-20.3Q335.01-22.15 336.96-23.38 338.91-24.6 341.41-24.6L341.41-24.6Q345.16-24.6 346.91-22.35 348.66-20.1 348.66-15.4L348.66-15.4 348.66 0 346.46 0 346.46-15.1Q346.46-18.95 345.19-20.78 343.91-22.6 340.96-22.6L340.96-22.6Q338.81-22.6 337.06-21.48 335.31-20.35 333.11-18.1L333.11-18.1 333.11 0ZM359.71 0L357.51 0 357.51-24 359.41-24 359.61-20.3 359.76-20.3Q361.61-22.15 363.56-23.38 365.51-24.6 368.01-24.6L368.01-24.6Q371.76-24.6 373.51-22.35 375.26-20.1 375.26-15.4L375.26-15.4 375.26 0 373.06 0 373.06-15.1Q373.06-18.95 371.79-20.78 370.51-22.6 367.56-22.6L367.56-22.6Q365.41-22.6 363.66-21.48 361.91-20.35 359.71-18.1L359.71-18.1 359.71 0ZM383.16 10.95L383.16 10.95Q381.81 10.95 380.71 10.45L380.71 10.45 381.21 8.5Q381.61 8.65 382.11 8.78 382.61 8.9 383.16 8.9L383.16 8.9Q385.41 8.9 386.91 7.1 388.41 5.3 389.31 2.55L389.31 2.55 389.96 0.45 380.11-24 382.51-24 388.31-8.9Q388.86-7.4 389.53-5.6 390.21-3.8 390.91-2.2L390.91-2.2 391.11-2.2Q391.66-3.8 392.23-5.6 392.81-7.4 393.31-8.9L393.31-8.9 398.46-24 400.71-24 391.21 3Q390.71 4.5 389.98 5.95 389.26 7.4 388.28 8.5 387.31 9.6 386.03 10.28 384.76 10.95 383.16 10.95ZM427.85 0.6L427.85 0.6Q424.8 0.6 422.25-0.6 419.7-1.8 417.88-4.03 416.05-6.25 415.05-9.43 414.05-12.6 414.05-16.55L414.05-16.55Q414.05-20.45 415.08-23.6 416.1-26.75 417.95-28.98 419.8-31.2 422.38-32.38 424.95-33.55 428.1-33.55L428.1-33.55Q431-33.55 433.2-32.35 435.4-31.15 436.7-29.6L436.7-29.6 435.35-28.05Q434-29.6 432.2-30.53 430.4-31.45 428.15-31.45L428.15-31.45Q425.45-31.45 423.28-30.4 421.1-29.35 419.58-27.43 418.05-25.5 417.25-22.75 416.45-20 416.45-16.55L416.45-16.55Q416.45-13.1 417.25-10.33 418.05-7.55 419.55-5.6 421.05-3.65 423.18-2.58 425.3-1.5 427.95-1.5L427.95-1.5Q430.5-1.5 432.5-2.53 434.5-3.55 436.3-5.55L436.3-5.55 437.65-4.1Q435.75-1.9 433.4-0.65 431.05 0.6 427.85 0.6ZM452.85 0.6L452.85 0.6Q450.7 0.6 448.75-0.25 446.8-1.1 445.33-2.7 443.85-4.3 442.98-6.63 442.1-8.95 442.1-11.95L442.1-11.95Q442.1-14.95 442.98-17.32 443.85-19.7 445.33-21.3 446.8-22.9 448.75-23.75 450.7-24.6 452.85-24.6L452.85-24.6Q455-24.6 456.98-23.75 458.95-22.9 460.43-21.3 461.9-19.7 462.78-17.32 463.65-14.95 463.65-11.95L463.65-11.95Q463.65-8.95 462.78-6.63 461.9-4.3 460.43-2.7 458.95-1.1 456.98-0.25 455 0.6 452.85 0.6ZM452.85-1.35L452.85-1.35Q454.65-1.35 456.23-2.13 457.8-2.9 458.93-4.3 460.05-5.7 460.7-7.65 461.35-9.6 461.35-11.95L461.35-11.95Q461.35-14.35 460.7-16.3 460.05-18.25 458.93-19.68 457.8-21.1 456.23-21.88 454.65-22.65 452.85-22.65L452.85-22.65Q451.05-22.65 449.5-21.88 447.95-21.1 446.83-19.68 445.7-18.25 445.05-16.3 444.4-14.35 444.4-11.95L444.4-11.95Q444.4-9.6 445.05-7.65 445.7-5.7 446.83-4.3 447.95-2.9 449.5-2.13 451.05-1.35 452.85-1.35ZM477.75 0.6L477.75 0.6Q474 0.6 472.25-1.65 470.5-3.9 470.5-8.6L470.5-8.6 470.5-24 472.7-24 472.7-8.9Q472.7-5.05 473.97-3.23 475.25-1.4 478.15-1.4L478.15-1.4Q480.3-1.4 482.05-2.58 483.8-3.75 485.9-6.3L485.9-6.3 485.9-24 488.1-24 488.1 0 486.25 0 486-4 485.9-4Q484.15-1.9 482.2-0.65 480.25 0.6 477.75 0.6ZM499.5 0L497.3 0 497.3-24 499.2-24 499.4-20.3 499.55-20.3Q501.4-22.15 503.35-23.38 505.3-24.6 507.8-24.6L507.8-24.6Q511.55-24.6 513.3-22.35 515.05-20.1 515.05-15.4L515.05-15.4 515.05 0 512.85 0 512.85-15.1Q512.85-18.95 511.57-20.78 510.3-22.6 507.35-22.6L507.35-22.6Q505.2-22.6 503.45-21.48 501.7-20.35 499.5-18.1L499.5-18.1 499.5 0ZM530.44 0.6L530.44 0.6Q528.69 0.6 527.54 0.08 526.39-0.45 525.69-1.4 524.99-2.35 524.72-3.7 524.44-5.05 524.44-6.65L524.44-6.65 524.44-22.1 520.69-22.1 520.69-23.8 524.49-24 524.79-30.95 526.69-30.95 526.69-24 533.64-24 533.64-22.1 526.69-22.1 526.69-6.45Q526.69-5.3 526.87-4.38 527.04-3.45 527.49-2.78 527.94-2.1 528.72-1.73 529.49-1.35 530.74-1.35L530.74-1.35Q531.44-1.35 532.27-1.58 533.09-1.8 533.74-2.1L533.74-2.1 534.34-0.3Q533.29 0.1 532.24 0.35 531.19 0.6 530.44 0.6ZM542.19-8.95L540.54-8.95 540.24-29.95 540.24-33.5 542.54-33.5 542.49-29.95 542.19-8.95ZM541.39 0.6L541.39 0.6Q540.54 0.6 539.89 0 539.24-0.6 539.24-1.65L539.24-1.65Q539.24-2.75 539.89-3.35 540.54-3.95 541.39-3.95L541.39-3.95Q542.24-3.95 542.87-3.35 543.49-2.75 543.49-1.65L543.49-1.65Q543.49-0.6 542.87 0 542.24 0.6 541.39 0.6Z" opacity="1" transform="matrix(1,0,0,1,0,0)" fill="black" class="slogan-text-1" id="SvgjsPath1723"></path></svg></g></svg></g></svg></g></svg></g><g><svg viewBox="0 0 165.65327856178183 165.65327856178183" height="165.65327856178183" width="165.65327856178183"><g><svg xmlns="http://www.w3.org/2000/svg" xmlns:xlink="http://www.w3.org/1999/xlink" version="1.1" x="0" y="0" viewBox="5 5 90 90" style="enable-background:new 0 0 100 100;" xml:space="preserve" height="165.65327856178183" width="165.65327856178183" class="icon-icon-0" data-fill-palette-color="accent" id="SvgjsSvg1722"><path d="M53.75 5C42.731 5 32.373 9.291 24.582 17.082l-7.5 7.5C9.291 32.373 5 42.731 5 53.75s4.291 21.377 12.082 29.168S35.231 95 46.25 95s21.377-4.291 29.168-12.082l7.5-7.5C90.709 67.627 95 57.269 95 46.25s-4.291-21.377-12.082-29.168S64.769 5 53.75 5zM71.883 79.383c-14.135 14.133-37.131 14.133-51.266 0-14.134-14.134-14.134-37.132 0-51.266 7.067-7.066 16.35-10.601 25.633-10.601s18.565 3.534 25.633 10.601C86.017 42.251 86.017 65.249 71.883 79.383zM86.858 60.994c0.417-2.369 0.642-4.788 0.642-7.244 0-11.019-4.291-21.377-12.082-29.168S57.269 12.5 46.25 12.5c-2.455 0-4.875 0.225-7.243 0.642 4.68-2.078 9.71-3.126 14.743-3.126 9.283 0 18.565 3.534 25.633 10.601C90.281 31.516 92.767 47.682 86.858 60.994z" fill="white"></path><path d="M46.25 22.5c-6.484 0-12.512 1.986-17.51 5.38-0.086 0.051-0.166 0.113-0.246 0.175C20.349 33.701 15 43.11 15 53.75 15 70.981 29.019 85 46.25 85c10.641 0 20.052-5.35 25.698-13.497 0.061-0.079 0.121-0.157 0.172-0.241C75.514 66.263 77.5 60.234 77.5 53.75 77.5 36.519 63.481 22.5 46.25 22.5zM46.25 80C31.775 80 20 68.225 20 53.75c0-4.236 1.015-8.238 2.805-11.784-0.194 1.412-0.305 2.841-0.305 4.284 0 17.231 14.019 31.25 31.25 31.25 1.443 0 2.872-0.111 4.284-0.305C54.488 78.985 50.486 80 46.25 80zM68.171 68.166C63.882 70.995 58.911 72.5 53.75 72.5c-14.475 0-26.25-11.775-26.25-26.25 0-5.161 1.505-10.132 4.334-14.421 4.141-2.732 9.095-4.329 14.416-4.329 14.475 0 26.25 11.775 26.25 26.25C72.5 59.072 70.904 64.026 68.171 68.166z" fill="white"></path></svg></g></svg></g></svg></g></svg></g><defs><mask></mask></defs></svg><rect width="395.52" height="112.93382370912359" fill="black" stroke="none" visibility="hidden"></rect></g></mask><linearGradient x1="0.054" x2="0.941" y1="0.5" y2="0.5" id="fb1b992e-fed7-4f62-ba9b-b9b051bdf6d4"><stop stop-color="#eaa79c" offset="0"></stop><stop stop-color="#f2e8cb" offset="0.498"></stop><stop stop-color="#eaa79c" offset="1"></stop></linearGradient><rect width="395.52" height="112.93382370912359" fill="url(#fb1b992e-fed7-4f62-ba9b-b9b051bdf6d4)" mask="url(#9b9d9e6b-2375-457d-b579-44c1ab08a402)" data-fill-palette-color="accent"></rect></svg><rect width="395.52" height="112.93382370912359" fill="none" stroke="none" visibility="hidden"></rect></g></svg></g></svg>